# xmcd
#
# Track frame offsets: 
#        150
#        31277
#        52327
#        77605
#        99667
#        125005
#        154847
#        188112
#        217330
#        237532
#        279095
#        315965
#
# Disc length: 4445 seconds
#
# Revision: 5
# Processed by: cddbd v1.5.2PL0 Copyright (c) Steve Scherf et al.
# Submitted via: ExactAudioCopy v1.0b6
#
DISCID=a9115b0c
DTITLE=Paquito D'Rivera - A Taste of Paquito D'Rivera
DYEAR=1994
DGENRE=Latin
TTITLE0=On Green Dolphin Street (1981)
TTITLE1=Song to My Son (1981)
TTITLE2=Miami (1982)
TTITLE3=Como Fue (1984)
TTITLE4=Manteca (1984)
TTITLE5=Claudia
TTITLE6=Just Kidding (1985)
TTITLE7=Brussels in the Rain (1984)
TTITLE8=Monk-Tuno (1982)
TTITLE9=Zanaith (1983)
TTITLE10=Song for Maura (1983)
TTITLE11=Why Not (1984)
EXTD=
EXTT0=
EXTT1=
EXTT2=
EXTT3=
EXTT4=
EXTT5=
EXTT6=
EXTT7=
EXTT8=
EXTT9=
EXTT10=
EXTT11=
PLAYORDER=
